<?xml version="1.0" encoding="UTF-8" standalone="no"?>
<svg width="100px" height="100px" viewBox="0 0 100 100" version="1.1" xmlns="http://www.w3.org/2000/svg" xmlns:xlink="http://www.w3.org/1999/xlink" xmlns:sketch="http://www.bohemiancoding.com/sketch/ns">
    <!-- Generator: Sketch 3.1.1 (8761) - http://www.bohemiancoding.com/sketch -->
    <title>filter-envvars</title>
    <desc>Created with Sketch.</desc>
    <defs></defs>
    <g id="Page-1" stroke="none" stroke-width="1" fill="none" fill-rule="evenodd" sketch:type="MSPage">
        <circle id="circle" fill="#BAD100" sketch:type="MSShapeGroup" cx="50" cy="50" r="50"></circle>
        <path d="M9.27051294,48.4799805 L10.4951223,48.4799805 C10.9140697,48.4799805 11.2390176,48.3806162 11.4699758,48.1818848 C11.700934,47.9831533 11.8701218,47.7226579 11.9775442,47.4003906 C12.0849666,47.0781234 12.1494191,46.7182637 12.1709036,46.3208008 C12.192388,45.9233379 12.2031301,45.5258809 12.2031301,45.128418 L12.2031301,39.5371094 C12.2031301,38.6455034 12.3427772,37.8317908 12.6220754,37.0959473 C12.9013737,36.3601037 13.2988307,35.7316921 13.8144583,35.2106934 C14.3300858,34.6896947 14.9584975,34.2868667 15.6997122,34.0021973 C16.4409268,33.7175279 17.273438,33.5751953 18.1972708,33.5751953 L20.9687551,33.5751953 L20.9687551,37.1040039 L18.8740286,37.1040039 C18.1005872,37.1040039 17.5527411,37.3591283 17.2304739,37.8693848 C16.9082066,38.3796412 16.7470754,39.0644488 16.7470754,39.9238281 L16.7470754,45.7084961 C16.7363332,46.8471737 16.5188061,47.7656215 16.0944875,48.4638672 C15.670169,49.1621129 15.1250085,49.6831038 14.4589895,50.0268555 L14.4589895,50.2363281 C14.7812567,50.365235 15.082035,50.5935042 15.3613333,50.9211426 C15.6406315,51.2487809 15.8823283,51.6381813 16.0864309,52.0893555 C16.2905335,52.5405296 16.4516647,53.0400363 16.5698293,53.5878906 C16.687994,54.1357449 16.7470754,54.6889621 16.7470754,55.2475586 L16.7470754,60.5649414 C16.7470754,61.5747121 16.9082066,62.3105446 17.2304739,62.7724609 C17.5527411,63.2343773 18.1005872,63.465332 18.8740286,63.465332 L20.9687551,63.465332 L20.9687551,67.0102539 L18.1972708,67.0102539 C17.2841802,67.0102539 16.4597256,66.8652358 15.7238821,66.5751953 C14.9880386,66.2851548 14.3596269,65.8742702 13.8386282,65.3425293 C13.3176295,64.8107884 12.9148015,64.1770056 12.6301321,63.4411621 C12.3454627,62.7053186 12.2031301,61.886235 12.2031301,60.9838867 L12.2031301,55.5859375 C12.2031301,55.1562479 12.192388,54.7319357 12.1709036,54.3129883 C12.1494191,53.8940409 12.0795956,53.5153826 11.9614309,53.177002 C11.8432663,52.8386214 11.6606509,52.5646983 11.4135793,52.3552246 C11.1665078,52.1457509 10.8173902,52.0410156 10.3662161,52.0410156 L9.27051294,52.0410156 L9.27051294,48.4799805 Z M38.6749054,58.1157227 C38.0088865,58.8247106 37.3670472,59.3940408 36.7493683,59.8237305 C36.1316894,60.2534201 35.5167054,60.5837391 34.9043976,60.8146973 C34.2920899,61.0456555 33.6690492,61.1987301 33.035257,61.2739258 C32.4014648,61.3491215 31.7408268,61.3867188 31.0533234,61.3867188 C29.5708941,61.3867188 28.3006431,61.1289088 27.2425324,60.6132812 C26.1844216,60.0976537 25.3196842,59.4101605 24.6482941,58.5507812 C23.976904,57.691402 23.4827683,56.7031306 23.1658722,55.5859375 C22.8489761,54.4687444 22.6905304,53.3085998 22.6905304,52.1054688 C22.6905304,50.9453067 22.8543471,49.8361869 23.1819855,48.7780762 C23.5096239,47.7199654 24.0091306,46.78809 24.6805207,45.9824219 C25.3519107,45.1767538 26.195164,44.532229 27.2103058,44.0488281 C28.2254476,43.5654273 29.420504,43.3237305 30.7955109,43.3237305 C32.0201264,43.3237305 33.0943344,43.4902327 34.0181671,43.8232422 C34.9419999,44.1562517 35.7127441,44.6342742 36.330423,45.2573242 C36.9481019,45.8803742 37.4126968,46.6350053 37.7242218,47.5212402 C38.0357468,48.4074751 38.191507,49.398432 38.191507,50.4941406 C38.191507,50.913088 38.1780794,51.3454568 38.1512238,51.7912598 C38.1243682,52.2370628 38.0679723,52.7016577 37.9820343,53.1850586 L27.1055695,53.1850586 C27.1055695,53.6899439 27.1968772,54.2431611 27.3794953,54.8447266 C27.5621134,55.4462921 27.8279798,56.0129368 28.1771027,56.5446777 C28.5262255,57.0764187 28.9585942,57.5195295 29.4742218,57.8740234 C29.9898494,58.2285174 30.5806638,58.4057617 31.2466828,58.4057617 C31.8267638,58.4057617 32.3343271,58.3627934 32.7693878,58.2768555 C33.2044486,58.1909175 33.6072766,58.0512705 33.9778839,57.8579102 C34.3484913,57.6645498 34.7029799,57.4094254 35.0413605,57.0925293 C35.3797411,56.7756332 35.7422863,56.3808617 36.129007,55.9082031 L38.6749054,58.1157227 Z M30.5538117,46.4658203 C29.8770505,46.4658203 29.3184623,46.5839832 28.8780304,46.8203125 C28.4375985,47.0566418 28.0884809,47.3681621 27.8306671,47.7548828 C27.5728533,48.1416035 27.390238,48.5820288 27.2828156,49.0761719 C27.1753932,49.570315 27.1216828,50.0805638 27.1216828,50.6069336 L33.7764679,50.6069336 C33.7764679,50.1557595 33.7442417,49.6857935 33.6797882,49.1970215 C33.6153348,48.7082495 33.4703167,48.2624532 33.2447296,47.8596191 C33.0191426,47.4567851 32.6941947,47.1237806 32.2698761,46.8605957 C31.8455576,46.5974108 31.2735418,46.4658203 30.5538117,46.4658203 L30.5538117,46.4658203 Z M42.1046885,46.5786133 C42.1046885,46.2348616 42.096632,45.7917508 42.0805186,45.2492676 C42.0644052,44.7067844 42.0026383,44.1562528 41.8952159,43.5976562 L45.8429698,43.5976562 C45.8751965,43.6728519 45.9074227,43.7775872 45.9396495,43.9118652 C45.9718762,44.0461432 46.0067879,44.1911613 46.0443858,44.3469238 C46.0819836,44.5026863 46.1142099,44.6638175 46.1410655,44.8303223 C46.1679211,44.996827 46.1920908,45.1499016 46.2135752,45.2895508 C46.471389,45.0532215 46.7829094,44.8168957 47.1481456,44.5805664 C47.5133818,44.3442371 47.9135242,44.132081 48.348585,43.9440918 C48.7836458,43.7561026 49.2536118,43.6057135 49.7584971,43.4929199 C50.2633825,43.3801264 50.7897444,43.3237305 51.3375987,43.3237305 C52.2399469,43.3237305 53.0805147,43.4633775 53.8593272,43.7426758 C54.6381397,44.0219741 55.3148907,44.4248021 55.8896006,44.9511719 C56.4643105,45.4775417 56.9181634,46.1220665 57.2511729,46.8847656 C57.5841824,47.6474648 57.7506846,48.5122022 57.7506846,49.4790039 L57.7506846,61 L53.5612315,61 L53.5612315,50.2685547 C53.5612315,49.570309 53.491408,48.9794946 53.3517588,48.4960938 C53.2121097,48.0126929 53.0053247,47.6232925 52.7313975,47.3278809 C52.4574704,47.0324692 52.1217804,46.8176276 51.7243174,46.6833496 C51.3268545,46.5490716 50.8703161,46.4819336 50.3546885,46.4819336 C50.0539058,46.4819336 49.7316434,46.5061033 49.3878917,46.5544434 C49.0441399,46.6027834 48.6923368,46.6752925 48.3324717,46.7719727 C47.9726066,46.8686528 47.618118,46.9814447 47.2689952,47.1103516 C46.9198723,47.2392585 46.5949244,47.3842765 46.2941417,47.5454102 L46.2941417,61 L42.1046885,61 L42.1046885,46.5786133 Z M68.8020498,57.1328125 L73.0881826,43.5976562 L77.6643544,43.5976562 L70.6711904,61 L66.9973623,61 L59.8591787,43.5976562 L64.4353505,43.5976562 L68.8020498,57.1328125 Z M90.8919891,52.0410156 L89.796286,52.0410156 C89.3451119,52.0410156 88.9959943,52.1457509 88.7489227,52.3552246 C88.5018512,52.5646983 88.3192358,52.8386214 88.2010711,53.177002 C88.0829065,53.5153826 88.013083,53.8940409 87.9915985,54.3129883 C87.970114,54.7319357 87.9593719,55.1562479 87.9593719,55.5859375 L87.9593719,60.9838867 C87.9593719,61.886235 87.8170394,62.7053186 87.53237,63.4411621 C87.2477006,64.1770056 86.8448726,64.8107884 86.3238739,65.3425293 C85.8028752,65.8742702 85.1744635,66.2851548 84.43862,66.5751953 C83.7027764,66.8652358 82.8783218,67.0102539 81.9652313,67.0102539 L79.1937469,67.0102539 L79.1937469,63.465332 L81.2884735,63.465332 C82.0619149,63.465332 82.6097609,63.2343773 82.9320282,62.7724609 C83.2542954,62.3105446 83.4154266,61.5747121 83.4154266,60.5649414 L83.4154266,55.2475586 C83.4154266,54.6889621 83.4745081,54.1357449 83.5926727,53.5878906 C83.7108374,53.0400363 83.8719686,52.5405296 84.0760711,52.0893555 C84.2801737,51.6381813 84.5218705,51.2487809 84.8011688,50.9211426 C85.0804671,50.5935042 85.3812453,50.365235 85.7035125,50.2363281 L85.7035125,50.0268555 C85.0374936,49.6831038 84.492333,49.1621129 84.0680145,48.4638672 C83.643696,47.7656215 83.4261689,46.8471737 83.4154266,45.7084961 L83.4154266,39.9238281 C83.4154266,39.0644488 83.2542954,38.3796412 82.9320282,37.8693848 C82.6097609,37.3591283 82.0619149,37.1040039 81.2884735,37.1040039 L79.1937469,37.1040039 L79.1937469,33.5751953 L81.9652313,33.5751953 C82.889064,33.5751953 83.7215752,33.7175279 84.4627899,34.0021973 C85.2040045,34.2868667 85.8324162,34.6896947 86.3480438,35.2106934 C86.8636714,35.7316921 87.2611283,36.3601037 87.5404266,37.0959473 C87.8197249,37.8317908 87.9593719,38.6455034 87.9593719,39.5371094 L87.9593719,45.128418 C87.9593719,45.5258809 87.970114,45.9233379 87.9915985,46.3208008 C88.013083,46.7182637 88.0775354,47.0781234 88.1849579,47.4003906 C88.2923803,47.7226579 88.461568,47.9831533 88.6925262,48.1818848 C88.9234844,48.3806162 89.2484323,48.4799805 89.6673797,48.4799805 L90.8919891,48.4799805 L90.8919891,52.0410156 Z" id="{env}-(outline)" fill="#FFFFFF" sketch:type="MSShapeGroup"></path>
    </g>
</svg>